<svg width="20" height="20" viewBox="0 0 20 20" fill="none" xmlns="http://www.w3.org/2000/svg">
<path d="M9.99996 1.66675C8.35179 1.66675 6.74062 2.15549 5.37021 3.07117C3.9998 3.98685 2.9317 5.28834 2.30097 6.81105C1.67024 8.33377 1.50521 10.0093 1.82675 11.6258C2.1483 13.2423 2.94197 14.7272 4.10741 15.8926C5.27284 17.0581 6.7577 17.8517 8.37421 18.1733C9.99072 18.4948 11.6663 18.3298 13.189 17.6991C14.7117 17.0683 16.0132 16.0002 16.9289 14.6298C17.8446 13.2594 18.3333 11.6483 18.3333 10.0001C18.3333 8.90573 18.1177 7.8221 17.699 6.81105C17.2802 5.80001 16.6663 4.88135 15.8925 4.10752C15.1187 3.3337 14.2 2.71987 13.189 2.30109C12.1779 1.8823 11.0943 1.66675 9.99996 1.66675ZM9.99996 16.6667C8.68142 16.6667 7.39249 16.2758 6.29616 15.5432C5.19983 14.8107 4.34535 13.7695 3.84077 12.5513C3.33618 11.3331 3.20416 9.99269 3.46139 8.69948C3.71863 7.40627 4.35357 6.21839 5.28592 5.28604C6.21827 4.35369 7.40615 3.71875 8.69936 3.46151C9.99257 3.20428 11.333 3.3363 12.5512 3.84088C13.7694 4.34547 14.8105 5.19995 15.5431 6.29628C16.2756 7.39261 16.6666 8.68154 16.6666 10.0001C16.6666 11.7682 15.9643 13.4639 14.714 14.7141C13.4638 15.9644 11.7681 16.6667 9.99996 16.6667Z" fill="#17C162"/>
<path d="M12.25 6.99175L9.09996 11.1584L7.74163 9.40008C7.60571 9.22548 7.40599 9.11203 7.18642 9.08468C6.96684 9.05733 6.7454 9.11832 6.5708 9.25425C6.3962 9.39017 6.28274 9.58989 6.25539 9.80946C6.22804 10.029 6.28904 10.2505 6.42496 10.4251L8.44996 13.0167C8.52844 13.1161 8.62851 13.1962 8.74258 13.2511C8.85665 13.3059 8.98172 13.3341 9.1083 13.3334C9.23556 13.3331 9.36107 13.3037 9.47518 13.2473C9.5893 13.191 9.689 13.1093 9.76663 13.0084L13.575 8.00841C13.7098 7.8316 13.7688 7.60848 13.7391 7.38812C13.7095 7.16777 13.5934 6.96823 13.4166 6.83342C13.2398 6.6986 13.0167 6.63954 12.7963 6.66923C12.576 6.69892 12.3764 6.81494 12.2416 6.99175H12.25Z" fill="#17C162"/>
</svg>
