<svg width="144" height="33" viewBox="0 0 144 33" fill="none" xmlns="http://www.w3.org/2000/svg">
<g clip-path="url(#clip0_2799_9387)">
<mask id="mask0_2799_9387" style="mask-type:luminance" maskUnits="userSpaceOnUse" x="0" y="0" width="144" height="33">
<path d="M144 0.109375H0V32.1094H144V0.109375Z" fill="white"/>
</mask>
<g mask="url(#mask0_2799_9387)">
<path d="M27.8692 8.4782L27.3328 8.17106L13.8411 0.347656L0.207031 8.25324V23.993L0.395761 24.0993L13.8469 31.863L26.8965 24.33L27.6747 23.881V15.1122L26.8965 15.5613L20.6693 19.1559V12.6281L27.8634 8.47737H27.8692V8.4782ZM14.2533 9.35295L19.8912 12.6289V19.1625L14.2533 15.8924V9.35295ZM13.4338 1.48889V8.45407L7.40688 11.9542L1.375 8.4782L13.4338 1.48889ZM13.4338 9.35295V15.8924L7.79593 19.1625V12.6289L13.4338 9.35295ZM0.985129 9.15212L7.01788 12.6289V19.6116L0.985129 23.1116V9.15212ZM1.39239 23.7806L7.40688 20.2863L13.4454 23.7748L13.4571 30.74L1.39239 23.7798V23.7806ZM13.8411 23.095H13.8353L8.18006 19.8373L13.8179 16.5672L13.8411 16.5788L13.8651 16.5672L19.5022 19.8373L18.8532 20.21L13.8469 23.1016H13.8411V23.0959V23.095ZM21.0592 19.8373L26.8974 16.4609V23.4262L26.2956 23.7748L14.2302 30.7342L14.2418 23.7689L21.0583 19.8307V19.8365L21.0592 19.8373ZM20.2811 11.9558L14.2542 8.45573V1.48889L26.313 8.4782L20.2803 11.955L20.2811 11.9558Z" fill="#082233"/>
<path d="M13.8402 32.1035L0 24.115V8.1328L13.8402 0.109375L28.2755 8.47558L20.8745 12.7508V18.8056L27.8799 14.7611V24.0088L13.8394 32.1094V32.1035H13.8402ZM0.413053 23.8726L0.49583 23.9199L13.8468 31.6246L27.4751 23.7606V15.4707L20.4698 19.5152V12.5085L27.4577 8.47558L13.8402 0.588275L0.413053 8.37517V23.8726ZM13.6639 31.0976L0.979245 23.778L7.40685 20.0472L13.6515 23.6543L13.663 31.0984L13.6639 31.0976ZM1.80452 23.778L13.2508 30.383L13.2392 23.8967L7.40685 20.5328L1.80452 23.7846V23.7788V23.778ZM14.0231 31.0984L14.0347 23.6543L27.1026 16.104V23.5481L26.3949 23.9556L14.0231 31.0984ZM14.4477 23.8909L14.4362 30.3772L26.6904 23.3057V16.8136L14.4486 23.8851V23.8909H14.4477ZM0.778925 23.4709V8.79513L7.22387 12.5143V19.7335L0.778099 23.4767V23.4709H0.778925ZM1.19115 9.51059V22.7555L6.81082 19.492V12.7517L1.19115 9.51059ZM13.8344 23.3348L7.76608 19.8348L13.8162 16.3289L19.9135 19.8348L13.8518 23.3348H13.8344ZM8.59795 19.8348L13.846 22.8625L19.094 19.8348L13.8402 16.7953L8.59795 19.8348ZM20.0972 19.5219L14.0471 16.0152V8.99603L20.0972 12.5085V19.521V19.5219ZM14.4593 15.7728L19.6842 18.7997V12.745L14.4593 9.71142V15.772V15.7728ZM7.58976 19.5219V12.5093L13.6399 8.99686V16.0152L7.58976 19.5219ZM8.00282 12.7459V18.8006L13.2276 15.7736V9.71142L8.00282 12.745V12.7459ZM20.2802 12.1964L14.0471 8.57766V1.1261L26.726 8.47558L20.2802 12.1948V12.1964ZM14.4602 8.33536L20.2802 11.7175L25.8998 8.47725L14.4593 1.84736V8.33369L14.4602 8.33536ZM7.40762 12.1964L0.96103 8.47558L13.6399 1.1261V8.57024L7.40685 12.1889V12.1948L7.40762 12.1964ZM1.78714 8.47558L7.40685 11.7158L13.2268 8.33369V1.84736L1.78714 8.47558Z" fill="#082233"/>
<path d="M104.562 10.0703H107.004L112.166 22.2354H109.398L108.294 19.5263H103.2L102.097 22.2354H99.3945L104.556 10.0703H104.562ZM107.348 17.1808L105.75 13.2624L104.152 17.1808H107.348Z" fill="#082233"/>
<path d="M114.375 10.1602H119.88C121.412 10.1602 122.6 10.5893 123.389 11.3877C124.059 12.0592 124.42 13.0078 124.42 14.1507V14.1872C124.42 16.1344 123.372 17.3619 121.84 17.9296L124.783 22.2405H121.683L119.102 18.377H117.022V22.2405H114.375V10.1602ZM119.705 16.0248C120.995 16.0248 121.737 15.336 121.737 14.32V14.2835C121.737 13.1465 120.947 12.5605 119.657 12.5605H117.022V16.0315H119.705V16.0256V16.0248Z" fill="#082233"/>
<path d="M127.678 10.1602H130.325V15.4389L135.21 10.1602H138.411L133.509 15.2812L138.634 22.2348H135.451L131.718 17.0955L130.325 18.5463V22.2405H127.678V10.1602Z" fill="#082233"/>
<path d="M142.62 11.0578C142.62 11.2213 142.505 11.3359 142.288 11.3359H141.86V10.7674H142.276C142.486 10.7674 142.613 10.8645 142.613 11.0512M143.053 11.0329C143.053 10.6279 142.758 10.3922 142.3 10.3922H141.444V12.3269H141.871V11.7044H142.209L142.62 12.3269H143.114L142.644 11.6314C142.892 11.5409 143.06 11.3475 143.06 11.0263M143.789 11.4073C143.789 12.302 143.096 13.0274 142.186 13.0274C141.275 13.0274 140.588 12.3078 140.588 11.4131C140.588 10.5184 141.275 9.79298 142.191 9.79298C143.108 9.79298 143.789 10.5125 143.789 11.4014M144.001 11.4073C144.001 10.4154 143.211 9.59375 142.191 9.59375C141.171 9.59375 140.377 10.4221 140.377 11.4139C140.377 12.4057 141.167 13.2274 142.186 13.2274C143.204 13.2274 144.001 12.3991 144.001 11.4073Z" fill="#082233"/>
<path d="M43.5139 22.2315C40.0257 22.2315 37.3926 19.5631 37.3926 16.0249C37.3926 12.4867 40.0613 9.74609 43.6033 9.74609C45.9368 9.74609 47.2355 10.6159 48.1808 11.4916L47.0559 12.7872C45.9194 11.7796 44.8416 11.3297 43.5793 11.3297C41.1084 11.3297 39.2468 13.3208 39.2468 15.9593C39.2468 18.5979 41.1498 20.6612 43.5793 20.6612C45.1172 20.6612 46.1279 20.0495 47.1519 19.1199L48.2586 20.247C46.8465 21.6622 45.4641 22.244 43.5014 22.244L43.513 22.2324L43.5139 22.2315Z" fill="#082233"/>
<path d="M54.3906 22.2439V17.4541L49.5391 10.0664H51.6391L55.3102 15.8489L59.0235 10.0664H61.0449L56.2116 17.3445L56.1934 22.2431H54.3913L54.3906 22.2439Z" fill="#082233"/>
<path d="M63.2871 22.2439V10.0664H68.8101C70.1996 10.0664 71.3004 10.4299 72.0018 11.1197C72.5362 11.6467 72.7948 12.2825 72.7948 13.0577C72.7948 14.2686 72.2533 15.1168 71.0853 15.7103L70.6175 15.9469L71.116 16.1104C72.7698 16.6673 73.5084 17.5454 73.5084 18.9688C73.5084 21.0213 71.8175 22.2448 68.988 22.2448H63.2871V22.2439ZM65.052 20.7243H69.013C70.7288 20.7243 71.7061 20.0154 71.7061 18.7746C71.7061 17.5338 70.6917 16.825 68.8466 16.825H65.052V20.7251V20.7243ZM65.052 15.3833H68.3544C70.0332 15.3833 70.9925 14.6811 70.9925 13.4519C70.9925 12.2891 70.0639 11.5927 68.5144 11.5927H65.052V15.3833Z" fill="#082233"/>
<path d="M76.0645 22.2439V10.0664H84.6072V11.6102H77.7643V15.3285H83.8289V16.8723H77.7643V20.7051H84.6936V22.2431H76.0645V22.2439Z" fill="#082233"/>
<path d="M95.8231 22.2439L92.8669 17.8475H89.9005V22.2439H88.209V10.0664H93.3578C94.7664 10.0664 95.9146 10.4781 96.6826 11.2658C97.2944 11.9256 97.6183 12.8095 97.6183 13.8329C97.6183 15.6613 96.6538 16.9511 94.8989 17.4782L94.6103 17.5629L97.7968 22.2439H95.8231ZM89.9005 16.322H93.2023C94.8355 16.322 95.8864 15.4073 95.8864 13.9906C95.8864 12.5008 94.8989 11.6409 93.185 11.6409H89.9005V16.322Z" fill="#082233"/>
</g>
</g>
<defs>
<clipPath id="clip0_2799_9387">
<rect width="144" height="32" fill="white" transform="translate(0 0.109375)"/>
</clipPath>
</defs>
</svg>
