<svg width="138" height="20" viewBox="0 0 138 20" fill="none" xmlns="http://www.w3.org/2000/svg">
<path d="M29.7139 19.726V1.61033C29.715 1.3241 29.8292 1.04992 30.0316 0.847527C30.234 0.645132 30.5082 0.530923 30.7944 0.529785H43.1529L43.1385 3.79447H33.8884V8.45377H41.9218V11.6543H33.8596V16.4159L43.2819 16.4303V19.7238L29.7139 19.726Z" fill="#091B49"/>
<path d="M48.86 19.9912C47.6676 20.0315 46.5 19.6456 45.5665 18.9027C45.1208 18.5221 44.7693 18.0435 44.5395 17.5044C44.3096 16.9652 44.2077 16.3802 44.2417 15.7951C44.2061 15.1299 44.3405 14.4665 44.6324 13.8677C44.9244 13.2689 45.3641 12.7543 45.9101 12.3727C47.0346 11.5853 48.8031 11.1768 51.23 11.148L52.9343 11.1192V10.2966C52.9517 10.0294 52.9108 9.76165 52.8144 9.51188C52.718 9.26211 52.5684 9.03629 52.3761 8.85008C51.8988 8.46506 51.2889 8.28386 50.6789 8.34583C50.116 8.35384 49.5624 8.49112 49.061 8.74707C48.8044 8.88494 48.5799 9.07554 48.4023 9.30634C48.2246 9.53714 48.0978 9.80292 48.0301 10.0862H44.8223C44.8153 9.43019 44.9761 8.78325 45.2894 8.20682C45.6027 7.6304 46.0581 7.14362 46.6124 6.79273C47.8979 6.04229 49.371 5.67465 50.8583 5.73307C52.956 5.73307 54.4428 6.12207 55.3187 6.90006C55.7612 7.29675 56.1097 7.78706 56.3388 8.33535C56.568 8.88363 56.6721 9.47609 56.6435 10.0697V19.7225H53.1022V17.3597C52.7526 18.2171 52.1347 18.9382 51.3409 19.4149C50.5759 19.8135 49.7223 20.0118 48.86 19.9912ZM50.1566 17.4426C50.6148 17.4435 51.067 17.3387 51.4781 17.1362C51.8891 16.9338 52.248 16.6393 52.5266 16.2756C52.7872 15.9559 52.9313 15.557 52.9351 15.1446V13.111L51.5462 13.1398C50.94 13.1431 50.3365 13.22 49.7489 13.3689C49.2427 13.4847 48.7759 13.7317 48.3953 14.085C48.2246 14.2591 48.0916 14.4667 48.0049 14.6947C47.9181 14.9226 47.8794 15.1661 47.8911 15.4097C47.876 15.6923 47.9267 15.9744 48.0392 16.2341C48.1517 16.4937 48.323 16.7237 48.5394 16.9059C48.9977 17.2707 49.5705 17.4608 50.1559 17.4426H50.1566Z" fill="#091B49"/>
<path d="M63.9455 19.991C63.0068 19.9938 62.0745 19.8364 61.1887 19.5257C60.3334 19.2202 59.5664 18.7088 58.9556 18.0367C58.3092 17.2936 57.9025 16.3726 57.7886 15.3944H61.1397C61.1922 15.7179 61.32 16.0244 61.5128 16.2893C61.7056 16.5543 61.9581 16.7701 62.2498 16.9194C62.7877 17.178 63.3749 17.3175 63.9716 17.3286C64.5683 17.3397 65.1604 17.222 65.7075 16.9835C65.917 16.8906 66.0941 16.7375 66.2165 16.5437C66.3388 16.3499 66.4009 16.1242 66.3947 15.8951C66.4008 15.7255 66.3671 15.5568 66.2961 15.4027C66.2252 15.2486 66.1191 15.1132 65.9863 15.0076C65.5922 14.7344 65.1375 14.5614 64.6616 14.5033L62.2555 13.9991C61.1884 13.808 60.1835 13.3608 59.3273 12.6959C58.9571 12.3691 58.6652 11.9633 58.473 11.5084C58.2809 11.0535 58.1934 10.5613 58.2172 10.068C58.2055 9.47542 58.3306 8.88807 58.5827 8.35162C58.8348 7.81516 59.2072 7.34403 59.6709 6.97481C60.9087 6.06647 62.4281 5.62528 63.9599 5.72931C65.3932 5.6576 66.8107 6.05461 67.9982 6.86028C68.4929 7.21504 68.8927 7.68602 69.1624 8.23173C69.4321 8.77743 69.5635 9.3811 69.5449 9.98953H66.3155C66.2754 9.74168 66.1842 9.50486 66.0478 9.29406C65.9114 9.08327 65.7327 8.90308 65.5231 8.76491C65.0464 8.45758 64.4863 8.3051 63.9196 8.32837C63.3458 8.30703 62.7759 8.43092 62.2627 8.68855C62.0617 8.78879 61.8938 8.94467 61.7788 9.13764C61.6639 9.33061 61.6068 9.55254 61.6144 9.77702C61.6143 9.95536 61.6639 10.1302 61.7575 10.282C61.8511 10.4337 61.9852 10.5565 62.1446 10.6364C62.6619 10.8933 63.2144 11.072 63.7841 11.1666L66.0108 11.6709C66.8612 11.8389 67.6576 12.2126 68.3303 12.7593C68.8155 13.1632 69.19 13.6837 69.4188 14.2721C69.5983 14.719 69.6978 15.194 69.7127 15.6754C69.738 16.2989 69.6041 16.9186 69.3236 17.4761C69.043 18.0335 68.6251 18.5103 68.1092 18.8615C66.8738 19.6647 65.4174 20.0598 63.9455 19.991Z" fill="#091B49"/>
<path d="M74.5347 13.7469C74.479 14.6452 74.7457 15.5339 75.2868 16.2531C75.5504 16.5634 75.8819 16.8088 76.2557 16.9702C76.6295 17.1316 77.0355 17.2047 77.4421 17.1838C78.0465 17.1964 78.6437 17.0509 79.1746 16.7617C79.4325 16.6097 79.6577 16.4081 79.8371 16.1684C80.0166 15.9288 80.1466 15.6559 80.2198 15.3656H83.6999C83.5701 16.2967 83.1636 17.1674 82.5329 17.8645C81.9131 18.5562 81.1444 19.0981 80.2846 19.4493C79.4133 19.8114 78.4786 19.9963 77.535 19.9932C76.2907 20.0199 75.0603 19.7265 73.962 19.141C72.9467 18.5782 72.1142 17.7359 71.5632 16.7141C70.9688 15.5777 70.673 14.3087 70.7038 13.0266C70.6819 11.7496 70.9485 10.4841 71.484 9.32464C71.9747 8.25629 72.7595 7.34978 73.7467 6.71117C74.8236 6.09148 76.0417 5.75882 77.2842 5.74507C78.5266 5.73132 79.7518 6.03695 80.8422 6.63265C81.7905 7.21258 82.5379 8.06981 82.9831 9.08837C83.4893 10.2278 83.7387 11.4645 83.7136 12.7111V13.7491L74.5347 13.7469ZM74.5203 11.4418H80.1053C80.1262 10.6752 79.8836 9.92463 79.4181 9.31528C79.1661 9.01548 78.8464 8.77989 78.4854 8.62796C78.1244 8.47603 77.7325 8.41211 77.342 8.44148C76.7982 8.42383 76.2625 8.57645 75.8097 8.87802C75.3989 9.16529 75.0706 9.55524 74.8574 10.009C74.6323 10.4528 74.5174 10.9442 74.5225 11.4418H74.5203Z" fill="#091B49"/>
<path d="M92.6722 19.9908C91.9027 20.0186 91.1375 19.8641 90.4391 19.5398C89.8943 19.2602 89.4196 18.8613 89.0503 18.3728C88.7259 17.9275 88.4722 17.4347 88.2983 16.9119V19.7257H85.0566V0H88.1787C88.38 0 88.5731 0.0799935 88.7155 0.222383C88.8579 0.364772 88.9379 0.557893 88.9379 0.759262V7.86203C89.3127 7.23077 89.8523 6.71352 90.4989 6.36584C91.2807 5.93565 92.1627 5.72063 93.0548 5.74273C93.8197 5.70955 94.5816 5.8599 95.2766 6.18122C95.9716 6.50253 96.5796 6.98548 97.0499 7.58974C98.0238 8.82156 98.5036 10.554 98.5036 12.7951C98.5963 14.6572 98.0758 16.4984 97.0218 18.0364C96.5086 18.6892 95.8448 19.208 95.0874 19.5484C94.3299 19.8887 93.5012 20.0405 92.6722 19.9908ZM91.8273 17.1986C92.2274 17.2028 92.6229 17.1122 92.9813 16.9343C93.3398 16.7564 93.651 16.4962 93.8897 16.175C94.448 15.4878 94.7275 14.3352 94.7275 12.7238C94.8138 11.6131 94.5356 10.5047 93.9351 9.56641C93.6888 9.23583 93.366 8.96997 92.9943 8.79167C92.6227 8.61337 92.2133 8.52796 91.8013 8.54277C89.9039 8.54277 88.9468 9.93548 88.93 12.7209C88.93 14.3388 89.1663 15.4921 89.646 16.1721C89.8911 16.5153 90.2201 16.7899 90.6016 16.9697C90.9832 17.1494 91.4045 17.2282 91.8252 17.1986H91.8273Z" fill="#091B49"/>
<path d="M104.879 19.9909C104.032 19.989 103.194 19.8134 102.417 19.4751C101.643 19.1455 100.966 18.625 100.448 17.9623C99.9144 17.2524 99.639 16.3819 99.667 15.4944V6H103.533V15.0002C103.523 15.2905 103.573 15.5796 103.681 15.8495C103.788 16.1194 103.95 16.3642 104.156 16.5684C104.405 16.7855 104.695 16.9511 105.008 17.0556C105.322 17.1601 105.653 17.2014 105.982 17.1771C106.635 17.2105 107.276 17.0014 107.783 16.59C108.011 16.3799 108.189 16.1219 108.306 15.8348C108.422 15.5476 108.473 15.2382 108.456 14.9289V6H112.28V19.7258H108.914V17.005C108.809 17.7025 108.495 18.3516 108.012 18.8664C107.597 19.2812 107.082 19.5821 106.516 19.7402C105.986 19.9024 105.434 19.9869 104.879 19.9909Z" fill="#091B49"/>
<path d="M113.55 19.7258V17.9285C113.551 17.6939 113.629 17.4661 113.772 17.2801L120.302 8.71648H113.891V6H124.985V8.16109L118.218 17.0107H125.021V19.7171H113.55V19.7258Z" fill="#091B49"/>
<path d="M125.958 19.7258V17.9285C125.959 17.6939 126.037 17.4661 126.18 17.2801L132.71 8.71648H126.299V6H137.393V8.16109L130.627 17.0107H137.429V19.7171H125.958V19.7258Z" fill="#091B49"/>
<path d="M2.4341 8.52783H18.6091L16.7902 11.8357C16.604 12.1763 16.3296 12.4604 15.9957 12.6583C15.6619 12.8561 15.2809 12.9604 14.8928 12.9602H0L2.4341 8.52783Z" fill="#85E6C4"/>
<path d="M9.02785 15.1147H25.2021L23.3832 18.4226C23.197 18.7631 22.9225 19.047 22.5886 19.2448C22.2548 19.4425 21.8738 19.5467 21.4858 19.5464H6.59375L9.02785 15.1147Z" fill="#6D44E5"/>
<path d="M9.02785 1.93359H25.2021L23.3832 5.2415C23.197 5.5819 22.9225 5.86588 22.5886 6.06362C22.2548 6.26135 21.8738 6.36555 21.4858 6.36526H6.59375L9.02785 1.93359Z" fill="#517CE3"/>
</svg>
