<svg width="24" height="24" viewBox="0 0 24 24" fill="none" xmlns="http://www.w3.org/2000/svg">
<path d="M20.25 10.5V19.5C20.25 19.8978 20.092 20.2794 19.8107 20.5607C19.5294 20.842 19.1478 21 18.75 21H5.25C4.85218 21 4.47064 20.842 4.18934 20.5607C3.90804 20.2794 3.75 19.8978 3.75 19.5V10.5C3.75 10.1022 3.90804 9.72064 4.18934 9.43933C4.47064 9.15803 4.85218 8.99999 5.25 9H11.25V13.5C11.25 13.6989 11.329 13.8897 11.4697 14.0303C11.6103 14.171 11.8011 14.25 12 14.25C12.1989 14.25 12.3897 14.171 12.5303 14.0303C12.671 13.8897 12.75 13.6989 12.75 13.5V9H18.75C19.1478 9 19.5294 9.15803 19.8107 9.43933C20.092 9.72064 20.25 10.1022 20.25 10.5ZM12.75 4.06031L15.2194 6.53062C15.3601 6.67135 15.551 6.75041 15.75 6.75041C15.949 6.75041 16.1399 6.67135 16.2806 6.53062C16.4214 6.38989 16.5004 6.19902 16.5004 6C16.5004 5.80097 16.4214 5.6101 16.2806 5.46937L12.5306 1.71937C12.461 1.64964 12.3783 1.59432 12.2872 1.55658C12.1962 1.51883 12.0986 1.4994 12 1.4994C11.9014 1.4994 11.8038 1.51883 11.7128 1.55658C11.6217 1.59432 11.539 1.64964 11.4694 1.71937L7.71937 5.46937C7.57864 5.6101 7.49958 5.80097 7.49958 6C7.49958 6.19902 7.57864 6.38989 7.71938 6.53062C7.86011 6.67135 8.05098 6.75041 8.25 6.75041C8.44902 6.75041 8.63989 6.67135 8.78063 6.53062L11.25 4.06031V9H12.75V4.06031Z" fill="white"/>
</svg>
