<svg width="142" height="30" viewBox="0 0 142 30" fill="none" xmlns="http://www.w3.org/2000/svg">
<g clip-path="url(#clip0_22269_105016)">
<path d="M9.15145 7.92548L7.97607 12.2516L14.7037 7.90085L10.3037 24.3173L14.7723 24.321L21.2723 0.0732422" fill="#3395FF"/>
<path d="M1.91032 17.4192L0.0595703 24.3207H9.21853L12.9663 10.2811L1.91032 17.4192ZM33.7252 11.3431C33.5014 12.1752 33.07 12.7864 32.4267 13.1767C31.7849 13.5662 30.8842 13.7617 29.7215 13.7617H26.0275L27.3245 8.9259H31.0185C32.1797 8.9259 32.9775 9.11993 33.4103 9.51546C33.8432 9.91098 33.9476 10.5155 33.7252 11.3513M37.5499 11.2468C38.02 9.50053 37.826 8.15725 36.9663 7.21695C36.1081 6.28411 34.6021 5.81396 32.4529 5.81396H24.2088L19.2461 24.3289H23.2514L25.2514 16.8662H27.8782C28.4678 16.8662 28.932 16.9632 29.2708 17.1498C29.6103 17.3438 29.8096 17.6796 29.8708 18.1647L30.5857 24.3289H34.8767L34.1812 18.5826C34.0394 17.299 33.4521 16.5453 32.42 16.3214C33.7357 15.9408 34.8379 15.3065 35.726 14.4259C36.6079 13.5518 37.2379 12.4561 37.5499 11.2543M47.2857 17.702C46.9499 18.9558 46.435 19.9035 45.7387 20.5677C45.0417 21.2319 44.2088 21.5602 43.2372 21.5602C42.2476 21.5602 41.5767 21.2393 41.2223 20.5901C40.867 19.9408 40.8551 19.0005 41.1849 17.7692C41.5148 16.5378 42.0409 15.5752 42.7648 14.8811C43.4887 14.1871 44.3349 13.8401 45.3066 13.8401C46.2767 13.8401 46.9409 14.1759 47.2767 14.8423C47.62 15.5117 47.6275 16.4692 47.2917 17.7155L47.2857 17.702ZM49.0409 11.1498L48.5394 13.0229C48.323 12.3513 47.9029 11.814 47.282 11.411C46.6596 11.0155 45.8894 10.814 44.9708 10.814C43.8439 10.814 42.7618 11.105 41.7245 11.6871C40.6872 12.2692 39.7767 13.0901 39.0006 14.1498C38.2245 15.2095 37.6573 16.411 37.2917 17.7617C36.9335 19.1199 36.8588 20.3065 37.0752 21.3364C37.2991 22.3737 37.7693 23.1647 38.4932 23.7169C39.2245 24.2767 40.1573 24.5528 41.2991 24.5528C42.2064 24.5574 43.1035 24.3611 43.926 23.9781C44.7392 23.6113 45.4625 23.0714 46.0454 22.3961L45.523 24.3483H49.3961L52.9327 11.1565H49.0521L49.0409 11.1498ZM66.8506 11.1498H55.5872L54.7999 14.0901H61.3536L52.6894 21.5752L51.9491 24.3364H63.576L64.3633 21.3961H57.3409L66.1379 13.799M76.7648 17.6796C76.4163 18.9781 75.8991 19.9543 75.2163 20.5901C74.5335 21.2319 73.7066 21.5528 72.7357 21.5528C70.7058 21.5528 70.0387 20.2617 70.7312 17.6796C71.0745 16.3961 71.5939 15.4311 72.2879 14.7811C72.982 14.1289 73.823 13.8035 74.8118 13.8035C75.782 13.8035 76.4372 14.1267 76.7745 14.7774C77.1118 15.4267 77.1088 16.3946 76.7648 17.6781M79.032 11.6461C78.1402 11.0908 77.0021 10.8132 75.6141 10.8132C74.2088 10.8132 72.9081 11.0893 71.7111 11.6416C70.519 12.1904 69.4714 13.0096 68.6514 14.0341C67.8081 15.0714 67.2014 16.2878 66.829 17.6759C66.4633 19.0587 66.4185 20.2729 66.7021 21.3125C66.9857 22.3498 67.5827 23.1483 68.4782 23.7005C69.3812 24.2572 70.5305 24.5341 71.9409 24.5341C73.329 24.5341 74.62 24.255 75.8066 23.6998C76.9932 23.1416 78.0081 22.349 78.8514 21.3043C79.6946 20.264 80.2991 19.0505 80.6723 17.6625C81.0454 16.2744 81.0902 15.0625 80.8066 14.0207C80.523 12.9834 79.9334 12.1849 79.0454 11.6289M92.8588 14.6737L93.8514 11.0841C93.5155 10.9125 93.0752 10.8229 92.523 10.8229C91.6349 10.8229 90.7842 11.0423 89.9633 11.4871C89.2573 11.8647 88.6573 12.3975 88.1499 13.0647L88.6648 11.1319L87.5402 11.1364H84.779L81.2193 24.3229H85.1469L86.9939 17.4296C87.2626 16.4274 87.7461 15.6386 88.4439 15.0789C89.1379 14.5169 90.0036 14.2356 91.0484 14.2356C91.6902 14.2356 92.2872 14.3826 92.8543 14.6759M103.787 17.7431C103.451 18.9744 102.944 19.9147 102.25 20.564C101.556 21.2162 100.72 21.5416 99.7499 21.5416C98.7797 21.5416 98.1155 21.2132 97.7648 20.5565C97.4066 19.8961 97.3991 18.9446 97.7349 17.6938C98.0708 16.4438 98.5857 15.4849 99.2947 14.8207C100.004 14.1513 100.839 13.8169 101.81 13.8169C102.765 13.8169 103.407 14.1602 103.75 14.8543C104.093 15.5483 104.101 16.511 103.771 17.7423M106.517 11.6677C105.789 11.0856 104.86 10.7946 103.733 10.7946C102.746 10.7946 101.805 11.0184 100.913 11.4707C100.021 11.9222 99.2969 12.5378 98.7409 13.3169L98.7544 13.2274L99.4133 11.1304H95.5775L94.5999 14.7796L94.57 14.9065L90.5402 29.9393H94.473L96.5029 22.3722C96.7044 23.0453 97.1148 23.5737 97.7417 23.9558C98.3685 24.3364 99.1424 24.5252 100.063 24.5252C101.204 24.5252 102.294 24.249 103.327 23.6968C104.365 23.1431 105.26 22.3461 106.022 21.3162C106.783 20.2864 107.348 19.0923 107.708 17.7416C108.074 16.3886 108.148 15.1819 107.939 14.1259C107.727 13.0684 107.256 12.2498 106.529 11.6707M119.563 17.6893C119.227 18.9356 118.712 19.8908 118.018 20.5475C117.324 21.2087 116.488 21.5378 115.518 21.5378C114.525 21.5378 113.854 21.2169 113.503 20.5677C113.145 19.9184 113.137 18.9781 113.466 17.7468C113.794 16.5155 114.318 15.5528 115.042 14.8587C115.766 14.1647 116.613 13.8184 117.584 13.8184C118.554 13.8184 119.211 14.1543 119.554 14.8184C119.898 15.4849 119.9 16.4423 119.566 17.6916L119.563 17.6893ZM121.316 11.1334L120.814 13.0065C120.598 12.3311 120.18 11.7938 119.56 11.3946C118.933 10.9961 118.165 10.7975 117.247 10.7975C116.12 10.7975 115.032 11.0886 113.993 11.6707C112.956 12.2528 112.045 13.0692 111.269 14.1259C110.493 15.1826 109.926 16.3871 109.56 17.7378C109.198 19.0938 109.127 20.2826 109.344 21.3169C109.563 22.3468 110.033 23.1423 110.762 23.6975C111.489 24.2498 112.426 24.5289 113.568 24.5289C114.486 24.5289 115.363 24.3378 116.195 23.9543C117.006 23.5858 117.727 23.0452 118.309 22.3699L117.786 24.3237H121.66L125.195 11.1371H121.322L121.316 11.1334ZM141.456 11.1378L141.458 11.1341H139.077C139.001 11.1341 138.934 11.1378 138.865 11.1393H137.63L136.995 12.0199L136.839 12.2289L136.772 12.3334L131.753 19.3244L130.716 11.1378H126.605L128.687 23.5781L124.09 29.9438H128.187L129.299 28.3669C129.33 28.3207 129.359 28.2819 129.396 28.2326L130.695 26.3893L130.732 26.3371L136.548 18.0908L141.451 11.1505L141.458 11.1461H141.456V11.1378Z" fill="#072654"/>
</g>
<defs>
<clipPath id="clip0_22269_105016">
<rect width="141.493" height="30" fill="white"/>
</clipPath>
</defs>
</svg>
