<svg width="24" height="24" viewBox="0 0 24 24" fill="none" xmlns="http://www.w3.org/2000/svg">
<path opacity="0.5" d="M13.75 20V14.75H4C3.80109 14.75 3.61032 14.671 3.46967 14.5303C3.32902 14.3897 3.25 14.1989 3.25 14C3.25 13.8011 3.32902 13.6103 3.46967 13.4697C3.61032 13.329 3.80109 13.25 4 13.25H20C20.1456 13.2499 20.2881 13.2923 20.4101 13.3718C20.532 13.4514 20.6282 13.5647 20.6868 13.698C20.7455 13.8313 20.764 13.9787 20.7403 14.1224C20.7165 14.2661 20.6514 14.3997 20.553 14.507L15.053 20.507C14.9509 20.6185 14.8175 20.6965 14.6703 20.7308C14.5231 20.7651 14.3689 20.7541 14.228 20.6993C14.0872 20.6445 13.9661 20.5484 13.8808 20.4236C13.7955 20.2988 13.7499 20.1512 13.75 20Z" fill="white"/>
<path d="M10.2503 4.00035C10.2504 3.84919 10.2048 3.70154 10.1195 3.57675C10.0342 3.45196 9.91316 3.35586 9.77229 3.30105C9.63142 3.24623 9.47727 3.23527 9.33006 3.26958C9.18285 3.3039 9.04944 3.3819 8.94732 3.49335L3.44732 9.49335C3.34889 9.60066 3.28382 9.73429 3.26006 9.87795C3.23629 10.0216 3.25486 10.1691 3.3135 10.3024C3.37213 10.4357 3.4683 10.549 3.59027 10.6285C3.71223 10.7081 3.85471 10.7504 4.00032 10.7504H20.0003C20.1992 10.7504 20.39 10.6713 20.5307 10.5307C20.6713 10.39 20.7503 10.1993 20.7503 10.0004C20.7503 9.80144 20.6713 9.61068 20.5307 9.47002C20.39 9.32937 20.1992 9.25035 20.0003 9.25035H10.2503V4.00035Z" fill="white"/>
</svg>
