<svg width="19" height="15" viewBox="0 0 19 15" fill="none" xmlns="http://www.w3.org/2000/svg">
<path d="M18.125 13.75H17.5V3.125C17.5 2.95924 17.4342 2.80027 17.3169 2.68306C17.1997 2.56585 17.0408 2.5 16.875 2.5H13.75V0.625C13.75 0.45924 13.6842 0.300269 13.5669 0.183058C13.4497 0.0658481 13.2908 0 13.125 0H5.625C5.45924 0 5.30027 0.0658481 5.18306 0.183058C5.06585 0.300269 5 0.45924 5 0.625V5H1.875C1.70924 5 1.55027 5.06585 1.43306 5.18306C1.31585 5.30027 1.25 5.45924 1.25 5.625V13.75H0.625C0.45924 13.75 0.300268 13.8158 0.183058 13.9331C0.065848 14.0503 0 14.2092 0 14.375C0 14.5408 0.065848 14.6997 0.183058 14.8169C0.300268 14.9342 0.45924 15 0.625 15H18.125C18.2908 15 18.4497 14.9342 18.5669 14.8169C18.6842 14.6997 18.75 14.5408 18.75 14.375C18.75 14.2092 18.6842 14.0503 18.5669 13.9331C18.4497 13.8158 18.2908 13.75 18.125 13.75ZM5.625 11.25H4.375C4.20924 11.25 4.05027 11.1842 3.93306 11.0669C3.81585 10.9497 3.75 10.7908 3.75 10.625C3.75 10.4592 3.81585 10.3003 3.93306 10.1831C4.05027 10.0658 4.20924 10 4.375 10H5.625C5.79076 10 5.94973 10.0658 6.06694 10.1831C6.18415 10.3003 6.25 10.4592 6.25 10.625C6.25 10.7908 6.18415 10.9497 6.06694 11.0669C5.94973 11.1842 5.79076 11.25 5.625 11.25ZM5.625 8.75H4.375C4.20924 8.75 4.05027 8.68415 3.93306 8.56694C3.81585 8.44973 3.75 8.29076 3.75 8.125C3.75 7.95924 3.81585 7.80027 3.93306 7.68306C4.05027 7.56585 4.20924 7.5 4.375 7.5H5.625C5.79076 7.5 5.94973 7.56585 6.06694 7.68306C6.18415 7.80027 6.25 7.95924 6.25 8.125C6.25 8.29076 6.18415 8.44973 6.06694 8.56694C5.94973 8.68415 5.79076 8.75 5.625 8.75ZM10.625 13.75H8.125V10.625H10.625V13.75ZM10 8.75H8.75C8.58424 8.75 8.42527 8.68415 8.30806 8.56694C8.19085 8.44973 8.125 8.29076 8.125 8.125C8.125 7.95924 8.19085 7.80027 8.30806 7.68306C8.42527 7.56585 8.58424 7.5 8.75 7.5H10C10.1658 7.5 10.3247 7.56585 10.4419 7.68306C10.5592 7.80027 10.625 7.95924 10.625 8.125C10.625 8.29076 10.5592 8.44973 10.4419 8.56694C10.3247 8.68415 10.1658 8.75 10 8.75ZM10 6.25H8.75C8.58424 6.25 8.42527 6.18415 8.30806 6.06694C8.19085 5.94973 8.125 5.79076 8.125 5.625C8.125 5.45924 8.19085 5.30027 8.30806 5.18306C8.42527 5.06585 8.58424 5 8.75 5H10C10.1658 5 10.3247 5.06585 10.4419 5.18306C10.5592 5.30027 10.625 5.45924 10.625 5.625C10.625 5.79076 10.5592 5.94973 10.4419 6.06694C10.3247 6.18415 10.1658 6.25 10 6.25ZM10 3.75H8.75C8.58424 3.75 8.42527 3.68415 8.30806 3.56694C8.19085 3.44973 8.125 3.29076 8.125 3.125C8.125 2.95924 8.19085 2.80027 8.30806 2.68306C8.42527 2.56585 8.58424 2.5 8.75 2.5H10C10.1658 2.5 10.3247 2.56585 10.4419 2.68306C10.5592 2.80027 10.625 2.95924 10.625 3.125C10.625 3.29076 10.5592 3.44973 10.4419 3.56694C10.3247 3.68415 10.1658 3.75 10 3.75ZM14.375 11.25H13.125C12.9592 11.25 12.8003 11.1842 12.6831 11.0669C12.5658 10.9497 12.5 10.7908 12.5 10.625C12.5 10.4592 12.5658 10.3003 12.6831 10.1831C12.8003 10.0658 12.9592 10 13.125 10H14.375C14.5408 10 14.6997 10.0658 14.8169 10.1831C14.9342 10.3003 15 10.4592 15 10.625C15 10.7908 14.9342 10.9497 14.8169 11.0669C14.6997 11.1842 14.5408 11.25 14.375 11.25ZM14.375 8.75H13.125C12.9592 8.75 12.8003 8.68415 12.6831 8.56694C12.5658 8.44973 12.5 8.29076 12.5 8.125C12.5 7.95924 12.5658 7.80027 12.6831 7.68306C12.8003 7.56585 12.9592 7.5 13.125 7.5H14.375C14.5408 7.5 14.6997 7.56585 14.8169 7.68306C14.9342 7.80027 15 7.95924 15 8.125C15 8.29076 14.9342 8.44973 14.8169 8.56694C14.6997 8.68415 14.5408 8.75 14.375 8.75ZM14.375 6.25H13.125C12.9592 6.25 12.8003 6.18415 12.6831 6.06694C12.5658 5.94973 12.5 5.79076 12.5 5.625C12.5 5.45924 12.5658 5.30027 12.6831 5.18306C12.8003 5.06585 12.9592 5 13.125 5H14.375C14.5408 5 14.6997 5.06585 14.8169 5.18306C14.9342 5.30027 15 5.45924 15 5.625C15 5.79076 14.9342 5.94973 14.8169 6.06694C14.6997 6.18415 14.5408 6.25 14.375 6.25Z" fill="#343330"/>
</svg>
