<svg width="78" height="78" viewBox="0 0 78 78" fill="none" xmlns="http://www.w3.org/2000/svg">
<path d="M39 0C31.2865 0 23.7463 2.28731 17.3328 6.57269C10.9193 10.8581 5.92053 16.949 2.96872 24.0753C0.0168981 31.2017 -0.755432 39.0433 0.749392 46.6085C2.25422 54.1738 5.9686 61.1229 11.4229 66.5772C16.8771 72.0314 23.8262 75.7458 31.3915 77.2506C38.9568 78.7554 46.7984 77.9831 53.9247 75.0313C61.051 72.0795 67.142 67.0808 71.4273 60.6672C75.7127 54.2537 78 46.7135 78 39C77.9891 28.6599 73.8767 18.7464 66.5651 11.4349C59.2536 4.12334 49.3401 0.0109193 39 0ZM39 72C32.4732 72 26.093 70.0646 20.6662 66.4385C15.2394 62.8124 11.0097 57.6585 8.51199 51.6286C6.0143 45.5986 5.36079 38.9634 6.6341 32.562C7.90742 26.1606 11.0504 20.2806 15.6655 15.6655C20.2806 11.0503 26.1607 7.9074 32.562 6.63409C38.9634 5.36077 45.5986 6.01428 51.6286 8.51198C57.6585 11.0097 62.8124 15.2394 66.4385 20.6662C70.0646 26.093 72 32.4732 72 39C71.9901 47.7491 68.5101 56.137 62.3236 62.3236C56.137 68.5101 47.7491 71.9901 39 72ZM36 42V21C36 20.2044 36.3161 19.4413 36.8787 18.8787C37.4413 18.3161 38.2044 18 39 18C39.7957 18 40.5587 18.3161 41.1213 18.8787C41.6839 19.4413 42 20.2044 42 21V42C42 42.7956 41.6839 43.5587 41.1213 44.1213C40.5587 44.6839 39.7957 45 39 45C38.2044 45 37.4413 44.6839 36.8787 44.1213C36.3161 43.5587 36 42.7956 36 42ZM43.5 55.5C43.5 56.39 43.2361 57.26 42.7416 58.0001C42.2472 58.7401 41.5444 59.3169 40.7221 59.6575C39.8998 59.998 38.995 60.0872 38.1221 59.9135C37.2492 59.7399 36.4474 59.3113 35.818 58.682C35.1887 58.0526 34.7601 57.2508 34.5865 56.3779C34.4128 55.505 34.502 54.6002 34.8426 53.7779C35.1832 52.9557 35.7599 52.2529 36.5 51.7584C37.24 51.2639 38.11 51 39 51C40.1935 51 41.3381 51.4741 42.182 52.318C43.0259 53.1619 43.5 54.3065 43.5 55.5Z" fill="#D3151A"/>
</svg>
