<svg xmlns="http://www.w3.org/2000/svg" xmlns:xlink="http://www.w3.org/1999/xlink" version="1.1" x="0px" y="0px" viewBox="0 0 32 40" style="enable-background:new 0 0 32 32;" xml:space="preserve"><path d="M21.8300171,2H10.1699829c-1.1099854,0-2,0.9000244-2,2v0.7800293h15.6600342V4  C23.8300171,2.9000244,22.9400024,2,21.8300171,2z"/><path d="M5.2399902,8.7800293v0.7699585h21.5200195V8.7800293c0-1.1100464-0.8900146-2-2-2H7.2399902  C6.1300049,6.7800293,5.2399902,7.6699829,5.2399902,8.7800293z"/><path d="M4.3099976,30h23.3800049c1.1099854,0,2-0.9000244,2-2V13.5499878c0-1.0999756-0.8900146-2-2-2H4.3099976  c-1.1099854,0-2,0.9000244-2,2V28C2.3099976,29.0999756,3.2000122,30,4.3099976,30z M11.1199951,16.5300293h9.7600098  c0.5499878,0,1,0.4399414,1,1c0,0.5499878-0.4500122,1-1,1h-9.7600098c-0.5499878,0-1-0.4500122-1-1  C10.1199951,16.9699707,10.5700073,16.5300293,11.1199951,16.5300293z"/><text x="0" y="47" fill="#000000" font-size="5px" font-weight="bold" font-family="'Helvetica Neue', Helvetica, Arial-Unicode, Arial, Sans-serif">Created by Riyan Resdian</text><text x="0" y="52" fill="#000000" font-size="5px" font-weight="bold" font-family="'Helvetica Neue', Helvetica, Arial-Unicode, Arial, Sans-serif">from the Noun Project</text></svg>