<svg width="20" height="21" viewBox="0 0 20 21" fill="none" xmlns="http://www.w3.org/2000/svg">
<path d="M18 2.25H10.5V0.75C10.5 0.551088 10.421 0.360322 10.2803 0.21967C10.1397 0.0790176 9.94891 0 9.75 0C9.55109 0 9.36032 0.0790176 9.21967 0.21967C9.07902 0.360322 9 0.551088 9 0.75V2.25H1.5C1.10218 2.25 0.720644 2.40804 0.43934 2.68934C0.158035 2.97064 0 3.35218 0 3.75V15C0 15.3978 0.158035 15.7794 0.43934 16.0607C0.720644 16.342 1.10218 16.5 1.5 16.5H5.19L3.16406 19.0313C3.03974 19.1867 2.98225 19.3851 3.00422 19.5829C3.0262 19.7807 3.12585 19.9616 3.28125 20.0859C3.43665 20.2103 3.63507 20.2678 3.83286 20.2458C4.03066 20.2238 4.21162 20.1242 4.33594 19.9688L7.11 16.5H12.39L15.1641 19.9688C15.2256 20.0457 15.3017 20.1098 15.388 20.1573C15.4744 20.2048 15.5692 20.2349 15.6671 20.2458C15.7651 20.2567 15.8642 20.2481 15.9588 20.2207C16.0535 20.1933 16.1418 20.1475 16.2188 20.0859C16.2957 20.0244 16.3598 19.9483 16.4073 19.862C16.4548 19.7756 16.4849 19.6808 16.4958 19.5829C16.5067 19.4849 16.4981 19.3858 16.4707 19.2912C16.4433 19.1965 16.3975 19.1082 16.3359 19.0313L14.31 16.5H18C18.3978 16.5 18.7794 16.342 19.0607 16.0607C19.342 15.7794 19.5 15.3978 19.5 15V3.75C19.5 3.35218 19.342 2.97064 19.0607 2.68934C18.7794 2.40804 18.3978 2.25 18 2.25ZM7.5 12C7.5 12.1989 7.42098 12.3897 7.28033 12.5303C7.13968 12.671 6.94891 12.75 6.75 12.75C6.55109 12.75 6.36032 12.671 6.21967 12.5303C6.07902 12.3897 6 12.1989 6 12V9.75C6 9.55109 6.07902 9.36032 6.21967 9.21967C6.36032 9.07902 6.55109 9 6.75 9C6.94891 9 7.13968 9.07902 7.28033 9.21967C7.42098 9.36032 7.5 9.55109 7.5 9.75V12ZM10.5 12C10.5 12.1989 10.421 12.3897 10.2803 12.5303C10.1397 12.671 9.94891 12.75 9.75 12.75C9.55109 12.75 9.36032 12.671 9.21967 12.5303C9.07902 12.3897 9 12.1989 9 12V8.25C9 8.05109 9.07902 7.86032 9.21967 7.71967C9.36032 7.57902 9.55109 7.5 9.75 7.5C9.94891 7.5 10.1397 7.57902 10.2803 7.71967C10.421 7.86032 10.5 8.05109 10.5 8.25V12ZM13.5 12C13.5 12.1989 13.421 12.3897 13.2803 12.5303C13.1397 12.671 12.9489 12.75 12.75 12.75C12.5511 12.75 12.3603 12.671 12.2197 12.5303C12.079 12.3897 12 12.1989 12 12V6.75C12 6.55109 12.079 6.36032 12.2197 6.21967C12.3603 6.07902 12.5511 6 12.75 6C12.9489 6 13.1397 6.07902 13.2803 6.21967C13.421 6.36032 13.5 6.55109 13.5 6.75V12Z" fill="#637381"/>
</svg>
