<svg width="16" height="19" viewBox="0 0 16 19" fill="none" xmlns="http://www.w3.org/2000/svg">
<path d="M8.51155 13.2761C8.204 13.5153 7.7683 13.5153 7.46074 13.2761L2.20669 9.19245C1.89914 8.95324 1.47198 8.95324 1.16442 9.19245C0.728721 9.53418 0.728721 10.192 1.16442 10.5337L6.93961 15.0274C7.55472 15.5059 8.41758 15.5059 9.04123 15.0274L14.8164 10.5337C15.2521 10.192 15.2521 9.53418 14.8164 9.19245L14.8079 9.18391C14.5003 8.9447 14.0732 8.9447 13.7656 9.18391L8.51155 13.2761ZM9.04977 10.6961L14.825 6.20234C15.2607 5.86062 15.2607 5.19425 14.825 4.85252L9.04977 0.358813C8.43466 -0.119604 7.5718 -0.119604 6.94815 0.358813L1.17297 4.86107C0.737264 5.20279 0.737264 5.86916 1.17297 6.21089L6.94815 10.7046C7.56326 11.183 8.43466 11.183 9.04977 10.6961Z" fill="#637381"/>
<path d="M8.51155 16.8898C8.204 17.129 7.7683 17.129 7.46074 16.8898L2.20669 12.8062C1.89914 12.567 1.47198 12.567 1.16442 12.8062C0.728721 13.1479 0.728721 13.8057 1.16442 14.1475L6.93961 18.6412C7.55472 19.1196 8.41758 19.1196 9.04123 18.6412L14.8164 14.1475C15.2521 13.8057 15.2521 13.1479 14.8164 12.8062L14.8079 12.7977C14.5003 12.5584 14.0732 12.5584 13.7656 12.7977L8.51155 16.8898Z" fill="#637381"/>
</svg>
