<svg width="20" height="16" viewBox="0 0 20 16" fill="none" xmlns="http://www.w3.org/2000/svg">
<path d="M9.15479 12.7454C9.24219 12.8325 9.31154 12.936 9.35886 13.05C9.40617 13.1639 9.43053 13.2861 9.43053 13.4095C9.43053 13.5329 9.40617 13.655 9.35886 13.769C9.31154 13.883 9.24219 13.9864 9.15479 14.0735L8.75479 14.4735C8.33018 14.8997 7.82529 15.2375 7.26932 15.4674C6.71335 15.6972 6.11733 15.8145 5.51573 15.8126C4.60974 15.8129 3.72402 15.5445 2.97062 15.0413C2.21723 14.5381 1.63001 13.8227 1.28326 12.9857C0.936516 12.1487 0.84582 11.2276 1.02265 10.3391C1.19948 9.4505 1.63589 8.63434 2.27667 7.99386L4.99151 5.27901C5.56896 4.70165 6.29023 4.28912 7.08066 4.08413C7.87109 3.87915 8.70194 3.88915 9.4872 4.11311C10.2725 4.33708 10.9836 4.76686 11.547 5.35796C12.1104 5.94906 12.5055 6.68 12.6915 7.47511C12.7223 7.596 12.7287 7.72183 12.7102 7.84521C12.6918 7.9686 12.6489 8.08706 12.5841 8.19366C12.5193 8.30026 12.4338 8.39285 12.3328 8.46601C12.2317 8.53916 12.1171 8.59141 11.9956 8.6197C11.8741 8.64798 11.7482 8.65173 11.6252 8.63072C11.5022 8.60972 11.3847 8.56437 11.2794 8.49736C11.1742 8.43034 11.0834 8.34299 11.0124 8.24044C10.9413 8.13788 10.8915 8.02218 10.8657 7.90011C10.7554 7.43076 10.5216 6.9994 10.1887 6.65064C9.85577 6.30188 9.43574 6.04836 8.97202 5.9163C8.5083 5.78425 8.01773 5.77844 7.55101 5.89948C7.0843 6.02052 6.65838 6.26401 6.31729 6.60479L3.60245 9.31964C3.22402 9.69776 2.96622 10.1796 2.86165 10.7043C2.75709 11.2289 2.81046 11.7728 3.01501 12.2671C3.21955 12.7614 3.5661 13.184 4.01081 13.4813C4.45552 13.7787 4.97842 13.9375 5.51339 13.9376C5.86883 13.9386 6.22095 13.8691 6.54936 13.7331C6.87778 13.5972 7.17596 13.3974 7.42667 13.1454L7.82589 12.7454C7.913 12.6579 8.01654 12.5885 8.13057 12.5411C8.24459 12.4937 8.36686 12.4693 8.49034 12.4693C8.61382 12.4693 8.73609 12.4937 8.85011 12.5411C8.96414 12.5885 9.06768 12.6579 9.15479 12.7454ZM17.7212 1.52901C16.8619 0.670042 15.6967 0.1875 14.4817 0.1875C13.2668 0.1875 12.1015 0.670042 11.2423 1.52901L10.8431 1.92823C10.667 2.10435 10.568 2.34322 10.568 2.59229C10.568 2.84137 10.667 3.08024 10.8431 3.25636C11.0192 3.43248 11.2581 3.53142 11.5071 3.53142C11.7562 3.53142 11.9951 3.43248 12.1712 3.25636L12.5712 2.85636C13.0788 2.34872 13.7673 2.06353 14.4853 2.06353C15.2032 2.06353 15.8917 2.34872 16.3993 2.85636C16.907 3.364 17.1922 4.05251 17.1922 4.77042C17.1922 5.48833 16.907 6.17684 16.3993 6.68448L13.6798 9.39542C13.4291 9.64747 13.131 9.84727 12.8025 9.98325C12.4741 10.1192 12.122 10.1887 11.7665 10.1876C11.1567 10.1872 10.565 9.98077 10.0872 9.60186C9.6095 9.22295 9.27376 8.69376 9.13448 8.10011C9.07812 7.85789 8.92785 7.64798 8.71672 7.51656C8.5056 7.38514 8.25092 7.34297 8.0087 7.39933C7.76648 7.45568 7.55657 7.60595 7.42515 7.81708C7.29373 8.0282 7.25156 8.28289 7.30792 8.52511C7.54316 9.53048 8.11112 10.4269 8.91971 11.069C9.72829 11.7111 10.7301 12.0612 11.7626 12.0626H11.7665C12.3684 12.0643 12.9646 11.9466 13.5207 11.7163C14.0769 11.4861 14.5818 11.1478 15.0064 10.7212L17.7212 8.00636C18.1466 7.58108 18.484 7.07618 18.7142 6.52048C18.9444 5.96478 19.0629 5.36918 19.0629 4.76769C19.0629 4.16619 18.9444 3.57059 18.7142 3.01489C18.484 2.45919 18.1466 1.95429 17.7212 1.52901Z" fill="#637381"/>
</svg>
