<svg width="20" height="20" viewBox="0 0 20 20" fill="none" xmlns="http://www.w3.org/2000/svg">
<path fill-rule="evenodd" clip-rule="evenodd" d="M10 20C15.5228 20 20 15.5228 20 10C20 4.47715 15.5228 0 10 0C4.47715 0 0 4.47715 0 10C0 15.5228 4.47715 20 10 20ZM6 5.10957L6.72475 4H14.1069L13.4399 5.0775H11.4516C11.7736 5.55594 11.8889 5.82419 11.984 6.30251H14.1069L13.4078 7.41849H12.0545C11.4516 9.4388 10.5858 10.1571 8.19989 10.4201L12.6317 16H10.6499L6.38482 10.6446V9.56708C9.08498 9.66328 10.1689 9.09246 10.3741 7.41849H6L6.73116 6.30251H10.1689C9.79937 5.23123 8.74664 4.98197 6 5.10957Z" fill="#1A407D"/>
</svg>
