<svg width="10" height="11" viewBox="0 0 10 11" fill="none" xmlns="http://www.w3.org/2000/svg">
<path fill-rule="evenodd" clip-rule="evenodd" d="M2.12105 2.7538C2.1895 1.21355 3.4582 0 5 0C6.5418 0 7.8105 1.21355 7.87895 2.7538L7.9386 4.0968L8.0076 4.10265C8.81025 4.172 9.37675 4.7301 9.43765 5.5334C9.47345 6.0057 9.5 6.6444 9.5 7.5C9.5 8.3556 9.47345 8.9943 9.43765 9.4666C9.37675 10.2699 8.81025 10.828 8.0076 10.8974C7.3596 10.9534 6.3997 11 5 11C3.6003 11 2.6404 10.9534 1.9924 10.8974C1.18975 10.828 0.62325 10.2699 0.56235 9.4666C0.52655 8.9943 0.5 8.3556 0.5 7.5C0.5 6.71845 0.519 6.1179 0.54565 5.6598C0.5963 4.79025 1.19675 4.1729 2.0614 4.0959L2.12105 2.7538ZM5.8809 2.8426L5.9327 4.00755C5.6459 4.0027 5.3356 4 5 4C4.66475 4 4.35445 4.0027 4.0673 4.0075L4.1191 2.84265C4.14005 2.3713 4.52825 2 5 2C5.47175 2 5.85995 2.3713 5.8809 2.8426ZM6 7C6 7.4089 5.75455 7.7605 5.403 7.9155L5.4734 8.5415C5.4908 8.69615 5.4655 8.86525 5.32575 8.9338C5.2501 8.97095 5.14465 9 5 9C4.85535 9 4.7499 8.97095 4.67425 8.9338C4.5345 8.86525 4.5092 8.69615 4.5266 8.5415L4.597 7.9155C4.24545 7.7605 4 7.4089 4 7C4 6.4477 4.4477 6 5 6C5.5523 6 6 6.4477 6 7Z" fill="#637381"/>
</svg>
