<svg width="16" height="20" viewBox="0 0 16 20" fill="none" xmlns="http://www.w3.org/2000/svg">
<path d="M11.0003 0.833984H1.83366C0.916992 0.833984 0.166992 1.58398 0.166992 2.50065V13.334C0.166992 13.7923 0.541992 14.1673 1.00033 14.1673C1.45866 14.1673 1.83366 13.7923 1.83366 13.334V3.33398C1.83366 2.87565 2.20866 2.50065 2.66699 2.50065H11.0003C11.4587 2.50065 11.8337 2.12565 11.8337 1.66732C11.8337 1.20898 11.4587 0.833984 11.0003 0.833984ZM14.3337 4.16732H5.16699C4.25033 4.16732 3.50033 4.91732 3.50033 5.83398V17.5007C3.50033 18.4173 4.25033 19.1673 5.16699 19.1673H14.3337C15.2503 19.1673 16.0003 18.4173 16.0003 17.5007V5.83398C16.0003 4.91732 15.2503 4.16732 14.3337 4.16732ZM13.5003 17.5007H6.00033C5.54199 17.5007 5.16699 17.1257 5.16699 16.6673V6.66732C5.16699 6.20898 5.54199 5.83398 6.00033 5.83398H13.5003C13.9587 5.83398 14.3337 6.20898 14.3337 6.66732V16.6673C14.3337 17.1257 13.9587 17.5007 13.5003 17.5007Z" fill="#1A407D"/>
</svg>
