<svg width="16" height="16" viewBox="0 0 16 16" fill="none" xmlns="http://www.w3.org/2000/svg">
<path d="M14.6667 7.15885C14.4457 7.15885 14.2337 7.24665 14.0774 7.40293C13.9211 7.55921 13.8333 7.77117 13.8333 7.99219V12.9922C13.8333 13.2132 13.7455 13.4252 13.5893 13.5814C13.433 13.7377 13.221 13.8255 13 13.8255H3C2.77899 13.8255 2.56702 13.7377 2.41074 13.5814C2.25446 13.4252 2.16667 13.2132 2.16667 12.9922V2.99219C2.16667 2.77117 2.25446 2.55921 2.41074 2.40293C2.56702 2.24665 2.77899 2.15885 3 2.15885H8C8.22101 2.15885 8.43297 2.07106 8.58926 1.91478C8.74554 1.7585 8.83333 1.54653 8.83333 1.32552C8.83333 1.10451 8.74554 0.892545 8.58926 0.736265C8.43297 0.579985 8.22101 0.492188 8 0.492188H3C2.33696 0.492188 1.70107 0.75558 1.23223 1.22442C0.763392 1.69326 0.5 2.32915 0.5 2.99219V12.9922C0.5 13.6552 0.763392 14.2911 1.23223 14.76C1.70107 15.2288 2.33696 15.4922 3 15.4922H13C13.663 15.4922 14.2989 15.2288 14.7678 14.76C15.2366 14.2911 15.5 13.6552 15.5 12.9922V7.99219C15.5 7.77117 15.4122 7.55921 15.2559 7.40293C15.0996 7.24665 14.8877 7.15885 14.6667 7.15885Z" fill="#1A407D"/>
<path d="M11.3333 2.15885H12.65L7.40833 7.39219C7.33023 7.46966 7.26823 7.56182 7.22592 7.66337C7.18362 7.76492 7.16183 7.87384 7.16183 7.98385C7.16183 8.09386 7.18362 8.20279 7.22592 8.30433C7.26823 8.40588 7.33023 8.49805 7.40833 8.57552C7.4858 8.65363 7.57797 8.71562 7.67952 8.75793C7.78107 8.80024 7.88999 8.82202 8 8.82202C8.11001 8.82202 8.21893 8.80024 8.32048 8.75793C8.42203 8.71562 8.5142 8.65363 8.59167 8.57552L13.8333 3.34219V4.65885C13.8333 4.87987 13.9211 5.09183 14.0774 5.24811C14.2337 5.40439 14.4457 5.49219 14.6667 5.49219C14.8877 5.49219 15.0996 5.40439 15.2559 5.24811C15.4122 5.09183 15.5 4.87987 15.5 4.65885V1.32552C15.5 1.10451 15.4122 0.892545 15.2559 0.736265C15.0996 0.579985 14.8877 0.492188 14.6667 0.492188H11.3333C11.1123 0.492188 10.9004 0.579985 10.7441 0.736265C10.5878 0.892545 10.5 1.10451 10.5 1.32552C10.5 1.54653 10.5878 1.7585 10.7441 1.91478C10.9004 2.07106 11.1123 2.15885 11.3333 2.15885Z" fill="#1A407D"/>
</svg>
