<svg width="18" height="18" viewBox="0 0 18 18" fill="none" xmlns="http://www.w3.org/2000/svg">
<path d="M8.50006 14.126L14.6634 7.96263C13.6264 7.52969 12.6847 6.89714 11.8917 6.10096C11.0952 5.3078 10.4623 4.36577 10.0292 3.32846L3.86589 9.49179C3.38506 9.97263 3.14422 10.2135 2.93756 10.4785C2.69348 10.7912 2.48419 11.1296 2.31339 11.4876C2.16922 11.791 2.06172 12.1143 1.84672 12.7593L0.711723 16.1618C0.659485 16.3176 0.651734 16.4849 0.689343 16.6448C0.726952 16.8048 0.808429 16.951 0.924616 17.0672C1.0408 17.1834 1.18709 17.2649 1.34705 17.3025C1.507 17.3401 1.67427 17.3324 1.83006 17.2801L5.23256 16.1451C5.87839 15.9301 6.20089 15.8226 6.50422 15.6785C6.86256 15.5076 7.20089 15.2985 7.51339 15.0543C7.77839 14.8476 8.01922 14.6068 8.50006 14.126ZM16.3734 6.25263C16.9879 5.6381 17.3332 4.80462 17.3332 3.93554C17.3332 3.06647 16.9879 2.23299 16.3734 1.61846C15.7589 1.00393 14.9254 0.658691 14.0563 0.658691C13.1872 0.658691 12.3538 1.00393 11.7392 1.61846L11.0001 2.35763L11.0317 2.45013C11.396 3.49239 11.9921 4.43838 12.7751 5.21679C13.5767 6.02321 14.5559 6.63105 15.6342 6.99179L16.3734 6.25263Z" fill="#343330"/>
</svg>
