<svg width="14" height="18" viewBox="0 0 14 18" fill="none" xmlns="http://www.w3.org/2000/svg">
<path d="M12.625 1.49989H9.79219C9.44101 1.1067 9.01076 0.792119 8.52959 0.576729C8.04841 0.361339 7.52718 0.25 7 0.25C6.47282 0.25 5.95158 0.361339 5.47041 0.576729C4.98924 0.792119 4.55899 1.1067 4.20781 1.49989H1.375C1.04348 1.49989 0.725537 1.63158 0.491116 1.866C0.256696 2.10042 0.125 2.41837 0.125 2.74989V15.8749C0.125 16.2064 0.256696 16.5243 0.491116 16.7588C0.725537 16.9932 1.04348 17.1249 1.375 17.1249H12.625C12.9565 17.1249 13.2745 16.9932 13.5089 16.7588C13.7433 16.5243 13.875 16.2064 13.875 15.8749V2.74989C13.875 2.41837 13.7433 2.10042 13.5089 1.866C13.2745 1.63158 12.9565 1.49989 12.625 1.49989ZM7 1.49989C7.66304 1.49989 8.29893 1.76328 8.76777 2.23212C9.23661 2.70096 9.5 3.33685 9.5 3.99989H4.5C4.5 3.33685 4.76339 2.70096 5.23223 2.23212C5.70107 1.76328 6.33696 1.49989 7 1.49989ZM9.5 11.4999H4.5C4.33424 11.4999 4.17527 11.434 4.05806 11.3168C3.94085 11.1996 3.875 11.0406 3.875 10.8749C3.875 10.7091 3.94085 10.5502 4.05806 10.4329C4.17527 10.3157 4.33424 10.2499 4.5 10.2499H9.5C9.66576 10.2499 9.82473 10.3157 9.94194 10.4329C10.0592 10.5502 10.125 10.7091 10.125 10.8749C10.125 11.0406 10.0592 11.1996 9.94194 11.3168C9.82473 11.434 9.66576 11.4999 9.5 11.4999ZM9.5 8.99989H4.5C4.33424 8.99989 4.17527 8.93404 4.05806 8.81683C3.94085 8.69962 3.875 8.54065 3.875 8.37489C3.875 8.20913 3.94085 8.05016 4.05806 7.93295C4.17527 7.81573 4.33424 7.74989 4.5 7.74989H9.5C9.66576 7.74989 9.82473 7.81573 9.94194 7.93295C10.0592 8.05016 10.125 8.20913 10.125 8.37489C10.125 8.54065 10.0592 8.69962 9.94194 8.81683C9.82473 8.93404 9.66576 8.99989 9.5 8.99989Z" fill="#1A407D"/>
</svg>
