<svg width="18" height="15" viewBox="0 0 18 15" fill="none" xmlns="http://www.w3.org/2000/svg">
<path fill-rule="evenodd" clip-rule="evenodd" d="M6.5088 0.324694C6.7437 0.577624 6.72907 0.973082 6.47614 1.20797L2.12949 5.24463C2.12948 5.24463 2.12949 5.24463 2.12949 5.24463C1.85819 5.49659 1.64331 5.80316 1.499 6.14414C1.3547 6.48512 1.28423 6.85279 1.29224 7.22297C1.30025 7.59314 1.38655 7.95742 1.54547 8.29185C1.7044 8.62627 1.93233 8.92324 2.21428 9.16324L6.45518 12.7741C6.718 12.9979 6.74965 13.3924 6.52587 13.6552C6.3021 13.918 5.90764 13.9496 5.64482 13.7259L1.40406 10.1151C0.987717 9.76071 0.651139 9.32218 0.41647 8.82836C0.181801 8.33454 0.0543602 7.79662 0.0425323 7.25001C0.0307045 6.70339 0.134758 6.16047 0.347847 5.65696C0.560935 5.15345 0.878228 4.70077 1.27885 4.32871L5.62552 0.292032C5.87845 0.0571401 6.27391 0.0717635 6.5088 0.324694ZM8.80416 0.461881C9.01805 0.320648 9.40691 0.115312 9.84277 0.310344L9.84438 0.311064C10.2797 0.507316 10.3847 0.934186 10.4212 1.18813C10.4584 1.44668 10.4584 1.78429 10.4583 2.1461C10.4583 2.16042 10.4583 2.17478 10.4583 2.18917V3.54101C11.7064 3.63789 13.1073 4.03532 14.3635 4.93321C14.6443 5.13394 14.7092 5.52431 14.5085 5.80512C14.3077 6.08593 13.9174 6.15085 13.6365 5.95012C12.419 5.0798 11.0183 4.76667 9.83333 4.76667C9.48816 4.76667 9.20833 4.48685 9.20833 4.14167V2.18917C9.20833 2.00528 9.20803 1.85504 9.20578 1.73097C9.1114 1.8118 8.99871 1.91151 8.86102 2.03384M8.86102 2.03384L5.55126 4.97529C4.88398 5.56895 4.43332 5.97154 4.14137 6.31457C3.86092 6.64408 3.8 6.83631 3.8 7C3.8 7.16426 3.86108 7.35673 4.14137 7.68606C4.43326 8.02902 4.88364 8.43118 5.55096 9.02445C5.55091 9.02441 5.551 9.02449 5.55096 9.02445L8.86179 11.9661C8.99902 12.0882 9.11167 12.188 9.20579 12.2688C9.20803 12.1448 9.20833 11.9946 9.20833 11.8108V9.8575C9.20833 9.51232 9.48816 9.2325 9.83333 9.2325C11.4271 9.2325 13.0834 9.61071 14.5133 10.3074C15.279 10.6804 15.9917 11.1509 16.5966 11.714C16.4669 10.6429 16.2305 9.73297 15.9202 8.96264C15.7913 8.64246 15.9463 8.27836 16.2665 8.14942C16.5867 8.02047 16.9508 8.1755 17.0798 8.49569C17.6343 9.87276 17.9583 11.5771 17.9583 13.6667C17.9583 13.9542 17.7621 14.2047 17.483 14.2735C17.2038 14.3423 16.9136 14.2118 16.78 13.9572C16.2335 12.9164 15.2266 12.0454 13.9658 11.4311C12.8937 10.9088 11.6679 10.5876 10.4583 10.5042V11.8108C10.4583 11.8253 10.4583 11.8397 10.4583 11.854C10.4584 12.2161 10.4584 12.5538 10.4212 12.8122C10.3846 13.0665 10.2794 13.4928 9.84438 13.6889C9.40764 13.8858 9.01765 13.6795 8.80391 13.5382C8.58643 13.3944 8.33464 13.1703 8.06495 12.9303C8.05374 12.9203 8.0425 12.9103 8.03124 12.9003L4.72071 9.95889L4.68276 9.92515C4.0604 9.37189 3.54415 8.91297 3.18946 8.49623C2.816 8.05744 2.55 7.58491 2.55 7C2.55 6.41536 2.81616 5.94301 3.18946 5.5044C3.54373 5.08815 4.05927 4.62953 4.68081 4.07661L8.03065 1.0995C8.04135 1.08999 8.05211 1.08043 8.06275 1.07097C8.33361 0.830263 8.58612 0.605847 8.80416 0.461881" fill="#1C252E"/>
</svg>
