<svg width="14" height="18" viewBox="0 0 14 18" fill="none" xmlns="http://www.w3.org/2000/svg">
<path d="M13.25 1.75H11.375V1.125C11.375 0.95924 11.3092 0.800268 11.1919 0.683058C11.0747 0.565848 10.9158 0.5 10.75 0.5C10.5842 0.5 10.4253 0.565848 10.3081 0.683058C10.1908 0.800268 10.125 0.95924 10.125 1.125V1.75H7.625V1.125C7.625 0.95924 7.55915 0.800268 7.44194 0.683058C7.32473 0.565848 7.16576 0.5 7 0.5C6.83424 0.5 6.67527 0.565848 6.55806 0.683058C6.44085 0.800268 6.375 0.95924 6.375 1.125V1.75H3.875V1.125C3.875 0.95924 3.80915 0.800268 3.69194 0.683058C3.57473 0.565848 3.41576 0.5 3.25 0.5C3.08424 0.5 2.92527 0.565848 2.80806 0.683058C2.69085 0.800268 2.625 0.95924 2.625 1.125V1.75H0.75C0.58424 1.75 0.425269 1.81585 0.308058 1.93306C0.190848 2.05027 0.125 2.20924 0.125 2.375V14.875C0.125 15.538 0.388392 16.1739 0.857233 16.6428C1.32607 17.1116 1.96196 17.375 2.625 17.375H11.375C12.038 17.375 12.6739 17.1116 13.1428 16.6428C13.6116 16.1739 13.875 15.538 13.875 14.875V2.375C13.875 2.20924 13.8092 2.05027 13.6919 1.93306C13.5747 1.81585 13.4158 1.75 13.25 1.75ZM6.375 3.625C6.375 3.45924 6.44085 3.30027 6.55806 3.18306C6.67527 3.06585 6.83424 3 7 3C7.16576 3 7.32473 3.06585 7.44194 3.18306C7.55915 3.30027 7.625 3.45924 7.625 3.625V4.25C7.625 4.41576 7.55915 4.57473 7.44194 4.69194C7.32473 4.80915 7.16576 4.875 7 4.875C6.83424 4.875 6.67527 4.80915 6.55806 4.69194C6.44085 4.57473 6.375 4.41576 6.375 4.25V3.625ZM3.25 4.875C3.08424 4.875 2.92527 4.80915 2.80806 4.69194C2.69085 4.57473 2.625 4.41576 2.625 4.25V3.625C2.625 3.45924 2.69085 3.30027 2.80806 3.18306C2.92527 3.06585 3.08424 3 3.25 3C3.41576 3 3.57473 3.06585 3.69194 3.18306C3.80915 3.30027 3.875 3.45924 3.875 3.625V4.25C3.875 4.41576 3.80915 4.57473 3.69194 4.69194C3.57473 4.80915 3.41576 4.875 3.25 4.875ZM9.5 12.375H4.5C4.33424 12.375 4.17527 12.3092 4.05806 12.1919C3.94085 12.0747 3.875 11.9158 3.875 11.75C3.875 11.5842 3.94085 11.4253 4.05806 11.3081C4.17527 11.1908 4.33424 11.125 4.5 11.125H9.5C9.66576 11.125 9.82473 11.1908 9.94194 11.3081C10.0592 11.4253 10.125 11.5842 10.125 11.75C10.125 11.9158 10.0592 12.0747 9.94194 12.1919C9.82473 12.3092 9.66576 12.375 9.5 12.375ZM9.5 9.875H4.5C4.33424 9.875 4.17527 9.80915 4.05806 9.69194C3.94085 9.57473 3.875 9.41576 3.875 9.25C3.875 9.08424 3.94085 8.92527 4.05806 8.80806C4.17527 8.69085 4.33424 8.625 4.5 8.625H9.5C9.66576 8.625 9.82473 8.69085 9.94194 8.80806C10.0592 8.92527 10.125 9.08424 10.125 9.25C10.125 9.41576 10.0592 9.57473 9.94194 9.69194C9.82473 9.80915 9.66576 9.875 9.5 9.875ZM11.375 4.25C11.375 4.41576 11.3092 4.57473 11.1919 4.69194C11.0747 4.80915 10.9158 4.875 10.75 4.875C10.5842 4.875 10.4253 4.80915 10.3081 4.69194C10.1908 4.57473 10.125 4.41576 10.125 4.25V3.625C10.125 3.45924 10.1908 3.30027 10.3081 3.18306C10.4253 3.06585 10.5842 3 10.75 3C10.9158 3 11.0747 3.06585 11.1919 3.18306C11.3092 3.30027 11.375 3.45924 11.375 3.625V4.25Z" fill="#343330"/>
</svg>
