<svg width="20" height="20" viewBox="0 0 20 20" fill="none" xmlns="http://www.w3.org/2000/svg">
<path fill-rule="evenodd" clip-rule="evenodd" d="M7.50868 3.32469C7.74357 3.57762 7.72895 3.97308 7.47602 4.20797L3.12936 8.24463C3.12936 8.24463 3.12937 8.24463 3.12936 8.24463C2.85807 8.49659 2.64318 8.80316 2.49888 9.14414C2.35457 9.48512 2.28411 9.85279 2.29212 10.223C2.30013 10.5931 2.38643 10.9574 2.54535 11.2918C2.70427 11.6263 2.93221 11.9232 3.21416 12.1632L7.45506 15.7741C7.71787 15.9979 7.74952 16.3924 7.52575 16.6552C7.30198 16.918 6.90752 16.9496 6.6447 16.7259L2.40393 13.1151C1.98759 12.7607 1.65102 12.3222 1.41635 11.8284C1.18168 11.3345 1.05424 10.7966 1.04241 10.25C1.03058 9.70339 1.13464 9.16047 1.34772 8.65696C1.56081 8.15345 1.87811 7.70077 2.27873 7.32871L6.6254 3.29203C6.87833 3.05714 7.27379 3.07176 7.50868 3.32469ZM9.80403 3.46188C10.0179 3.32065 10.4068 3.11531 10.8426 3.31034L10.8443 3.31106C11.2795 3.50732 11.3845 3.93419 11.4211 4.18813C11.4583 4.44668 11.4583 4.78429 11.4582 5.1461C11.4582 5.16042 11.4582 5.17478 11.4582 5.18917V6.54101C12.7063 6.63789 14.1072 7.03532 15.3633 7.93321C15.6441 8.13394 15.7091 8.52431 15.5083 8.80512C15.3076 9.08593 14.9172 9.15085 14.6364 8.95012C13.4189 8.0798 12.0182 7.76667 10.8332 7.76667C10.488 7.76667 10.2082 7.48685 10.2082 7.14167V5.18917C10.2082 5.00528 10.2079 4.85504 10.2057 4.73097C10.1113 4.8118 9.99859 4.91151 9.86089 5.03384M9.86089 5.03384L6.55114 7.97529C5.88386 8.56895 5.4332 8.97154 5.14125 9.31457C4.8608 9.64408 4.79988 9.83631 4.79988 10C4.79988 10.1643 4.86096 10.3567 5.14125 10.6861C5.43314 11.029 5.88352 11.4312 6.55084 12.0244C6.55079 12.0244 6.55088 12.0245 6.55084 12.0244L9.86167 14.9661C9.9989 15.0882 10.1115 15.188 10.2057 15.2688C10.2079 15.1448 10.2082 14.9946 10.2082 14.8108V12.8575C10.2082 12.5123 10.488 12.2325 10.8332 12.2325C12.427 12.2325 14.0832 12.6107 15.5132 13.3074C16.2788 13.6804 16.9916 14.1509 17.5965 14.714C17.4668 13.6429 17.2303 12.733 16.9201 11.9626C16.7912 11.6425 16.9462 11.2784 17.2664 11.1494C17.5866 11.0205 17.9507 11.1755 18.0796 11.4957C18.6342 12.8728 18.9582 14.5771 18.9582 16.6667C18.9582 16.9542 18.762 17.2047 18.4828 17.2735C18.2036 17.3423 17.9135 17.2118 17.7798 16.9572C17.2334 15.9164 16.2265 15.0454 14.9657 14.4311C13.8935 13.9088 12.6678 13.5876 11.4582 13.5042V14.8108C11.4582 14.8253 11.4582 14.8397 11.4582 14.854C11.4583 15.2161 11.4583 15.5538 11.4211 15.8122C11.3845 16.0665 11.2793 16.4928 10.8443 16.6889C10.4075 16.8858 10.0175 16.6795 9.80379 16.5382C9.58631 16.3944 9.33452 16.1703 9.06483 15.9303C9.05362 15.9203 9.04238 15.9103 9.03111 15.9003L5.72059 12.9589L5.68264 12.9252C5.06027 12.3719 4.54402 11.913 4.18934 11.4962C3.81588 11.0574 3.54988 10.5849 3.54988 10C3.54988 9.41536 3.81604 8.94301 4.18934 8.5044C4.54361 8.08815 5.05915 7.62953 5.68069 7.07661L9.03053 4.0995C9.04123 4.08999 9.05198 4.08043 9.06263 4.07097C9.33348 3.83026 9.586 3.60585 9.80403 3.46188" fill="#1C252E"/>
</svg>
