<svg width="13" height="16" viewBox="0 0 13 16" fill="none" xmlns="http://www.w3.org/2000/svg">
<path d="M9.59301 3.44157C9.41321 3.62137 9.1217 3.62137 8.9419 3.44157L7.1314 1.63108C6.94978 1.44945 6.65531 1.44945 6.47368 1.63108L4.66319 3.44157C4.48339 3.62137 4.19188 3.62137 4.01208 3.44157C3.83228 3.26178 3.83228 2.97026 4.01208 2.79046L6.47368 0.328859C6.65531 0.147235 6.94978 0.147235 7.1314 0.328859L9.59301 2.79046C9.77281 2.97026 9.77281 3.26178 9.59301 3.44157Z" fill="#1A407D"/>
<path d="M6.33789 1.11937C6.33789 0.862519 6.54611 0.654297 6.80297 0.654297C7.05982 0.654297 7.26805 0.862519 7.26805 1.11937V9.95585C7.26805 10.2127 7.05982 10.4209 6.80297 10.4209C6.54611 10.4209 6.33789 10.2127 6.33789 9.95585V1.11937Z" fill="#1A407D"/>
<path d="M11.4526 16.0017H2.15109C1.36046 16.0017 0.755859 15.3971 0.755859 14.6065V6.23508C0.755859 5.44444 1.36046 4.83984 2.15109 4.83984H4.94156C5.19841 4.83984 5.40663 5.04807 5.40663 5.30492C5.40663 5.56178 5.19841 5.77 4.94156 5.77H2.15109C1.87205 5.77 1.68601 5.95603 1.68601 6.23508V14.6065C1.68601 14.8855 1.87205 15.0715 2.15109 15.0715H11.4526C11.7317 15.0715 11.9177 14.8855 11.9177 14.6065V6.23508C11.9177 5.95603 11.7317 5.77 11.4526 5.77H8.66218C8.40532 5.77 8.1971 5.56178 8.1971 5.30492C8.1971 5.04807 8.40532 4.83984 8.66218 4.83984H11.4526C12.2433 4.83984 12.8479 5.44444 12.8479 6.23508V14.6065C12.8479 15.3971 12.2433 16.0017 11.4526 16.0017Z" fill="#1A407D"/>
</svg>
