<svg width="18" height="17" viewBox="0 0 18 17" fill="none" xmlns="http://www.w3.org/2000/svg">
<path d="M17.1243 11.375H3.98834C4.19616 10.9656 4.40475 10.5445 4.61334 10.1164C5.78522 10.2453 7.15866 9.43047 8.72741 7.68359C9.11803 8.73516 9.85631 10.1 11.1165 10.125C11.8243 10.1391 12.5313 9.71875 13.2587 8.84609C13.7891 9.48047 14.8821 10.125 17.1243 10.125C17.29 10.125 17.449 10.0592 17.5662 9.94194C17.6834 9.82473 17.7493 9.66576 17.7493 9.5C17.7493 9.33424 17.6834 9.17527 17.5662 9.05806C17.449 8.94085 17.29 8.875 17.1243 8.875C14.7469 8.875 14.0438 8.05859 13.9993 7.61641C14.0063 7.48228 13.9681 7.34968 13.8907 7.23988C13.8134 7.13008 13.7014 7.04945 13.5727 7.01094C13.439 6.97078 13.2959 6.97571 13.1653 7.02499C13.0347 7.07426 12.9239 7.16514 12.8501 7.28359C11.9071 8.73203 11.336 8.87969 11.1376 8.875C10.4922 8.8625 9.836 7.35 9.611 6.26406C9.58699 6.14775 9.53034 6.04069 9.44769 5.95542C9.36503 5.87014 9.25979 5.81018 9.14429 5.78256C9.02879 5.75493 8.9078 5.76078 8.79551 5.79943C8.68321 5.83808 8.58425 5.90792 8.51022 6.00078C6.93209 7.98047 5.87428 8.64687 5.21569 8.81953C5.87897 7.34531 6.37428 6.05078 6.69147 4.96094C7.22428 3.12969 7.26334 1.84922 6.80944 1.04687C6.57506 0.626562 6.07975 0.125 5.086 0.125C3.83131 0.125 2.84147 1.31094 2.36959 3.37891C2.08912 4.60625 2.04303 5.97344 2.24303 7.12891C2.44303 8.28438 2.85787 9.125 3.461 9.62422C3.16959 10.2273 2.87272 10.8164 2.58366 11.375H0.87428C0.70852 11.375 0.549549 11.4408 0.432338 11.5581C0.315128 11.6753 0.24928 11.8342 0.24928 12C0.24928 12.1658 0.315128 12.3247 0.432338 12.4419C0.549549 12.5592 0.70852 12.625 0.87428 12.625H1.92194C1.03756 14.2656 0.350061 15.4094 0.339124 15.4281C0.294566 15.4985 0.264526 15.5771 0.250769 15.6592C0.237013 15.7414 0.239818 15.8255 0.259019 15.9065C0.278221 15.9876 0.313431 16.064 0.362582 16.1312C0.411732 16.1985 0.47383 16.2552 0.545226 16.2981C0.616621 16.3411 0.695875 16.3693 0.778327 16.3811C0.86078 16.3929 0.944768 16.3882 1.02536 16.3671C1.10594 16.346 1.1815 16.309 1.2476 16.2583C1.31369 16.2076 1.36898 16.1442 1.41022 16.0719C1.42194 16.0516 2.29069 14.6039 3.33991 12.625H17.1243C17.29 12.625 17.449 12.5592 17.5662 12.4419C17.6834 12.3247 17.7493 12.1658 17.7493 12C17.7493 11.8342 17.6834 11.6753 17.5662 11.5581C17.449 11.4408 17.29 11.375 17.1243 11.375ZM3.58834 3.65703C3.89928 2.29219 4.50162 1.375 5.086 1.375C5.50241 1.375 5.64069 1.52031 5.72116 1.66172C5.95553 2.07812 6.23053 3.55156 4.02897 8.41094C3.38365 7.52969 3.16412 5.51562 3.58834 3.65703Z" fill="#343330"/>
</svg>
