<svg width="20" height="21" viewBox="0 0 20 21" fill="none" xmlns="http://www.w3.org/2000/svg">
<path d="M11.4585 17.166V12.791H3.3335C3.16774 12.791 3.00876 12.7252 2.89155 12.608C2.77434 12.4907 2.7085 12.3318 2.7085 12.166C2.7085 12.0003 2.77434 11.8413 2.89155 11.7241C3.00876 11.6069 3.16774 11.541 3.3335 11.541H16.6668C16.7882 11.541 16.9069 11.5762 17.0085 11.6425C17.1102 11.7088 17.1903 11.8033 17.2392 11.9143C17.288 12.0254 17.3035 12.1483 17.2837 12.268C17.2639 12.3877 17.2097 12.4991 17.1277 12.5885L12.5443 17.5885C12.4592 17.6814 12.3481 17.7464 12.2254 17.775C12.1027 17.8036 11.9743 17.7944 11.8569 17.7488C11.7395 17.7031 11.6386 17.623 11.5675 17.519C11.4964 17.415 11.4584 17.292 11.4585 17.166Z" fill="black"/>
<path d="M8.54161 3.83428C8.54167 3.70831 8.50367 3.58527 8.43258 3.48128C8.36149 3.37729 8.26064 3.2972 8.14325 3.25152C8.02586 3.20585 7.8974 3.19671 7.77472 3.2253C7.65205 3.2539 7.54087 3.3189 7.45578 3.41178L2.87244 8.41178C2.79042 8.5012 2.73619 8.61256 2.71639 8.73228C2.69658 8.852 2.71206 8.97489 2.76092 9.08596C2.80979 9.19703 2.88993 9.29148 2.99156 9.35777C3.0932 9.42406 3.21193 9.45933 3.33328 9.45928H16.6666C16.8324 9.45928 16.9913 9.39343 17.1086 9.27622C17.2258 9.15901 17.2916 9.00004 17.2916 8.83428C17.2916 8.66852 17.2258 8.50955 17.1086 8.39234C16.9913 8.27513 16.8324 8.20928 16.6666 8.20928H8.54161V3.83428Z" fill="black"/>
</svg>
