<svg width="21" height="19" viewBox="0 0 21 19" fill="none" xmlns="http://www.w3.org/2000/svg">
<path d="M6 1.75V16.75C6 17.1478 5.84196 17.5294 5.56066 17.8107C5.27936 18.092 4.89782 18.25 4.5 18.25H2.25C1.85218 18.25 1.47064 18.092 1.18934 17.8107C0.908035 17.5294 0.75 17.1478 0.75 16.75V1.75C0.75 1.35218 0.908035 0.970644 1.18934 0.68934C1.47064 0.408035 1.85218 0.25 2.25 0.25H4.5C4.89782 0.25 5.27936 0.408035 5.56066 0.68934C5.84196 0.970644 6 1.35218 6 1.75ZM11.25 0.25H9C8.60218 0.25 8.22064 0.408035 7.93934 0.68934C7.65804 0.970644 7.5 1.35218 7.5 1.75V16.75C7.5 17.1478 7.65804 17.5294 7.93934 17.8107C8.22064 18.092 8.60218 18.25 9 18.25H11.25C11.6478 18.25 12.0294 18.092 12.3107 17.8107C12.592 17.5294 12.75 17.1478 12.75 16.75V1.75C12.75 1.35218 12.592 0.970644 12.3107 0.68934C12.0294 0.408035 11.6478 0.25 11.25 0.25ZM19.5 8.5H18V7C18 6.80109 17.921 6.61032 17.7803 6.46967C17.6397 6.32902 17.4489 6.25 17.25 6.25C17.0511 6.25 16.8603 6.32902 16.7197 6.46967C16.579 6.61032 16.5 6.80109 16.5 7V8.5H15C14.8011 8.5 14.6103 8.57902 14.4697 8.71967C14.329 8.86032 14.25 9.05109 14.25 9.25C14.25 9.44891 14.329 9.63968 14.4697 9.78033C14.6103 9.92098 14.8011 10 15 10H16.5V11.5C16.5 11.6989 16.579 11.8897 16.7197 12.0303C16.8603 12.171 17.0511 12.25 17.25 12.25C17.4489 12.25 17.6397 12.171 17.7803 12.0303C17.921 11.8897 18 11.6989 18 11.5V10H19.5C19.6989 10 19.8897 9.92098 20.0303 9.78033C20.171 9.63968 20.25 9.44891 20.25 9.25C20.25 9.05109 20.171 8.86032 20.0303 8.71967C19.8897 8.57902 19.6989 8.5 19.5 8.5Z" fill="#343330"/>
</svg>
